<?xml version="1.0" encoding="UTF-8" standalone="no"?> <svg id="artwork" xmlns="http://www.w3.org/2000/svg" viewBox="0 0 512 512"><title>crocodile</title><g id="Crocodile"><path d="M273.59,315a62.72,62.72,0,0,0-37.67,12.37l-40,20.55-99,15.07a16,16,0,0,1-15.53-4.24,35.41,35.41,0,0,0-25.27-10.62H47.72a29.64,29.64,0,0,0-29.64,29.64v30.57a29.64,29.64,0,0,0,29.64,29.64H456.05c27,0,43.95-21.91,43.95-48.95V315Z" style="fill:#8dad7c"/><path d="M217.21,390.2a215.88,215.88,0,0,0-31.51,7.23A215.11,215.11,0,0,1,122,407.08H39.05c-11.58,0-21-8.64-21-19.31V386.1a28.58,28.58,0,0,1,.25-3.84c1.57,9.24,10.25,16.3,20.72,16.3H122a215.11,215.11,0,0,0,63.73-9.65,215.28,215.28,0,0,1,63.74-9.66h19.88q-1.24,4.33-2.91,8.52h-17A214.37,214.37,0,0,0,217.21,390.2Z" style="fill:#789369"/><path d="M500,314.81v74c0,27-16.91,48.94-43.95,48.94H206a50,50,0,0,0,30.56-10.42,93.53,93.53,0,0,0,32.72-48.12H249.44a215.28,215.28,0,0,0-63.74,9.66A215.11,215.11,0,0,1,122,398.56H39.05c-11.58,0-21-8.64-21-19.31v-1.67a29.64,29.64,0,0,1,29.64-29.64h8.42a35.37,35.37,0,0,1,25.27,10.62,16,16,0,0,0,15.53,4.24l96.11-14.63,2.47-.38.42-.06,40-20.55c.52-.39,1-.77,1.57-1.14q2.19-1.55,4.52-2.88a63.26,63.26,0,0,1,31.58-8.35Z" style="fill:#507f72"/><path d="M245.07,335.9a27.49,27.49,0,0,1-52,12.41l2.47-.38.42-.06,40-20.55c.52-.39,1-.77,1.57-1.14q2.19-1.55,4.52-2.88A27.24,27.24,0,0,1,245.07,335.9Z" style="fill:#375651"/><circle cx="216.84" cy="335.85" r="20.9" transform="translate(-110.82 106.83) rotate(-22.2)" style="fill:#eae6e1"/><path d="M335.76,396l-31.24-18.66a6.5,6.5,0,0,1-2.25-8.91h0a6.5,6.5,0,0,1,8.91-2.25l24.58,14.68,33.49-20,33.49,20,33.5-20,31.24,18.66a6.5,6.5,0,0,1,2.25,8.91h0a6.5,6.5,0,0,1-8.91,2.25L436.24,376l-33.5,20-33.49-20Z" style="fill:#8dad7c"/><path d="M500,315H358.41a100.9,100.9,0,0,1-100.9-100.9V181.13a59.1,59.1,0,0,0,59.1,59.1h71.23a121.4,121.4,0,0,1,94,44.67A122.85,122.85,0,0,1,500,315Z" style="fill:#375651"/><path d="M481.79,284.9H358.41A100.89,100.89,0,0,1,257.51,184v-2.87a59.1,59.1,0,0,0,59.1,59.1h71.23A121.4,121.4,0,0,1,481.79,284.9Z" style="fill:#507f72"/><path d="M215,329.86a6.26,6.26,0,1,0,7.82,4.15A6.27,6.27,0,0,0,215,329.86Z"/><path d="M369.25,362.75l33.49,20,33.5-20,24.58,14.67a6.5,6.5,0,0,0,8.91-2.24h0a6.51,6.51,0,0,0-2.25-8.92L436.24,347.6l-33.5,20-33.49-20-33.49,20-24.58-14.67a6.5,6.5,0,0,0-8.91,2.24h0a6.5,6.5,0,0,0,2.25,8.91l31.24,18.66Z" style="fill:#375651"/><path d="M308.41,410.08h0a27.85,27.85,0,0,1,27.85,27.85v27.85a0,0,0,0,1,0,0h-55.7a0,0,0,0,1,0,0V437.93A27.85,27.85,0,0,1,308.41,410.08Z" style="fill:#375651"/><path d="M424.36,410.08h0a27.85,27.85,0,0,1,27.85,27.85v27.85a0,0,0,0,1,0,0h-55.7a0,0,0,0,1,0,0V437.93A27.85,27.85,0,0,1,424.36,410.08Z" style="fill:#375651"/><path d="M336.27,473H256a19.5,19.5,0,0,1,19.5-19.5h60.77Z" style="fill:#507f72"/><path d="M452.21,473H371.94a19.51,19.51,0,0,1,19.5-19.5h60.77Z" style="fill:#507f72"/><path d="M53.42,398.56h-13V382.8a6.5,6.5,0,0,1,6.5-6.5h0a6.5,6.5,0,0,1,6.5,6.5Z" style="fill:#15453e"/><path d="M94.38,398.56h-13V382.8a6.5,6.5,0,0,1,6.5-6.5h0a6.5,6.5,0,0,1,6.5,6.5Z" style="fill:#15453e"/><path d="M67.4,421.52h0a6.5,6.5,0,0,1-6.5-6.5V398.56h13V415A6.5,6.5,0,0,1,67.4,421.52Z" style="fill:#15453e"/><path d="M108.92,421.52h0a6.5,6.5,0,0,1-6.5-6.5V398.56h13V415A6.5,6.5,0,0,1,108.92,421.52Z" style="fill:#15453e"/><path d="M158.08,395.66V415a6.5,6.5,0,0,1-6.5,6.5h0a6.5,6.5,0,0,1-6.5-6.5V397.45Q151.61,396.76,158.08,395.66Z" style="fill:#15453e"/><path d="M201.42,384.82v16.7a6.5,6.5,0,0,1-6.5,6.5h0a6.5,6.5,0,0,1-6.5-6.5V388.24Q194.87,386.32,201.42,384.82Z" style="fill:#15453e"/><path d="M135.34,382.8v15.48q-6.48.41-13,.42V382.8a6.5,6.5,0,0,1,6.5-6.5h0A6.5,6.5,0,0,1,135.34,382.8Z" style="fill:#15453e"/><path d="M178.75,377v14.07q-6.45,1.77-13,3.13V377a6.5,6.5,0,0,1,6.5-6.5h0A6.5,6.5,0,0,1,178.75,377Z" style="fill:#15453e"/></g></svg>