<?xml version="1.0" encoding="iso-8859-1"?>
<!-- Generator: Adobe Illustrator 21.0.0, SVG Export Plug-In . SVG Version: 6.00 Build 0)  -->
<svg version="1.1" id="Capa_1" xmlns="http://www.w3.org/2000/svg" xmlns:xlink="http://www.w3.org/1999/xlink" x="0px" y="0px"
	 viewBox="0 0 512 512" style="enable-background:new 0 0 512 512;" xml:space="preserve">
<g id="XMLID_952_">
	<g id="XMLID_953_">
		<path style="fill:#3A82D0;" d="M251.626,364.856L115.038,501.443c-4.076,4.076-10.684,4.076-14.76,0l-65.976-65.976
			c-4.929-4.93-3.733-13.213,2.39-16.547l174.174-94.825L251.626,364.856z"/>
		<path id="XMLID_954_" style="fill:#0D73CE;" d="M251.627,364.86l-136.59,136.58c-4.07,4.08-10.68,4.08-14.76,0l-8.47-8.46
			l143.97-143.97L251.627,364.86z"/>
		<g id="XMLID_955_">
			<g id="XMLID_956_">
				<path id="XMLID_957_" style="fill:#FFCF64;" d="M471.752,60.162c6.329,0,10.607,6.364,8.331,12.27
					c-4.928,12.785-17.332,21.857-31.855,21.857c-18.848,0-34.127-15.279-34.127-34.127H471.752z"/>
			</g>
			<path id="XMLID_958_" style="fill:#5F9EEB;" d="M379.597,352.98c-57.66,57.66-151.15,57.66-208.81,0
				c-14.64-14.64-25.55-31.58-32.76-49.67l157.39-157.38l34.52-34.52c18.08,7.2,35.03,18.12,49.66,32.75
				c8.4,8.41,15.58,17.57,21.54,27.28C436.037,228.32,428.857,303.72,379.597,352.98z"/>
			<path id="XMLID_959_" style="fill:#3A82D0;" d="M401.137,171.44c-11.14,4.72-23.23,7.19-35.7,7.19c-0.72,0-1.43-0.01-2.15-0.02
				c-23.37-0.54-45.46-9.97-62.21-26.56c-1.99-1.97-3.88-4.01-5.66-6.12l34.52-34.52c18.08,7.2,35.03,18.12,49.66,32.75
				C387.997,152.57,395.177,161.73,401.137,171.44z"/>
			<path id="XMLID_960_" style="fill:#3A82D0;" d="M379.597,352.98c-32.5,32.5-76.38,46.68-118.81,42.54
				c32.86-3.2,64.84-17.38,90-42.54c57.66-57.66,57.66-151.15,0-208.82c-9.27-9.26-19.46-17.04-30.28-23.32l9.43-9.43
				c18.08,7.2,35.03,18.12,49.66,32.75C437.267,201.83,437.267,295.32,379.597,352.98z"/>
			<path style="fill:#A9D2F7;" d="M297.381,77.226c68.472,68.472,68.472,179.488,0,247.961
				c-65.818,65.818-170.944,68.37-239.809,7.656c-4.542-4.004-4.821-10.986-0.54-15.267L297.381,77.226z"/>
			<path style="fill:#F1DD47;" d="M297.381,77.226c37.54,37.54,37.54,98.406,0,135.946s-98.406,37.54-135.946,0L297.381,77.226z"/>
			<path id="XMLID_961_" style="fill:#EFC40F;" d="M297.377,213.17c-27.18,27.18-66.59,34.68-100.52,22.49
				c28.86,4.05,59.2-5.03,81.4-27.22c33.47-33.48,37.1-85.49,10.89-122.98l8.23-8.23C334.917,114.77,334.917,175.63,297.377,213.17z
				"/>
			<path id="XMLID_962_" style="fill:#5F9EEB;" d="M368.351,7.574c0-0.025,0.002-0.049,0.002-0.074h-90.49
				c-6.871,0-11.848,6.52-10.083,13.161c3.029,11.396,9.897,21.227,19.134,28.029c3.654,2.691,5.024,7.523,3.507,11.8
				c-3.224,9.094-4.844,18.947-4.51,29.221c1.363,41.943,35.698,75.936,77.653,76.898C408.362,167.637,445,131.63,445,87.065
				C445,44.101,410.94,9.111,368.351,7.574z"/>
		</g>
		<g id="XMLID_963_">
			<circle style="fill:#93A3AF;" cx="388.467" cy="77.226" r="27.895"/>
		</g>
	</g>
	<g id="XMLID_964_">
		<path id="XMLID_965_" d="M485.343,59.773c-3.094-4.452-8.171-7.11-13.583-7.11h-26.339c-4.118-9.566-9.954-18.407-17.385-26.092
			c-15.476-16.003-36.145-25.368-58.311-26.445C369.281,0.043,368.822,0,368.353,0h-90.49c-5.61,0-10.79,2.551-14.21,6.999
			c-3.431,4.461-4.568,10.144-3.121,15.589c3.407,12.819,11.197,24.234,21.935,32.141c0.953,0.701,1.317,2.04,0.886,3.255
			c-3.152,8.891-4.814,18.166-4.968,27.631L51.728,312.271c-3.481,3.481-5.389,8.299-5.234,13.219
			c0.156,4.957,2.385,9.687,6.117,12.978c16.64,14.67,35.289,25.76,54.965,33.321l-74.47,40.543
			c-5.015,2.73-8.36,7.538-9.177,13.189c-0.816,5.652,1.032,11.21,5.07,15.248l65.976,65.976c3.388,3.388,7.892,5.254,12.684,5.254
			c4.791,0,9.296-1.866,12.684-5.254l38.009-38.009c2.929-2.929,2.929-7.678,0-10.606c-2.929-2.929-7.678-2.929-10.606,0
			l-38.009,38.009c-0.749,0.749-1.623,0.86-2.077,0.86c-0.454,0-1.328-0.112-2.077-0.86l-65.977-65.976
			c-0.905-0.905-0.909-1.953-0.83-2.497s0.378-1.547,1.502-2.16l87.052-47.394c15.062,3.892,30.514,5.842,45.959,5.842
			c7.838,0,15.673-0.511,23.454-1.509c5.747,3.373,11.67,6.362,17.741,8.944l-43.644,43.644c-2.929,2.929-2.929,7.678,0,10.606
			c1.464,1.464,3.384,2.197,5.303,2.197s3.839-0.732,5.303-2.197l48.602-48.602c14.566,4.424,29.728,6.698,45.026,6.698
			c9.65,0,19.357-0.898,28.992-2.714c4.071-0.767,6.749-4.689,5.981-8.759c-0.767-4.071-4.685-6.746-8.759-5.981
			c-27.376,5.162-55.34,2.109-80.572-8.538c30.112-8.024,58.518-23.806,81.968-47.256c17.409-17.409,30.9-37.709,40.1-60.337
			c1.56-3.837-0.286-8.212-4.123-9.772c-3.837-1.561-8.212,0.285-9.772,4.123c-8.441,20.763-20.826,39.396-36.811,55.38
			c-32.613,32.613-75.659,49.084-118.784,49.083c-39.515-0.002-79.098-13.833-110.762-41.749c-0.873-0.77-1.029-1.707-1.045-2.197
			c-0.018-0.572,0.115-1.409,0.848-2.142l99.293-99.293c19.393,16.793,43.585,25.194,67.78,25.194
			c26.537,0,53.074-10.101,73.276-30.304c14.34-14.34,23.934-32.033,28.07-51.59c2.458,1.075,4.964,2.033,7.511,2.875
			c4.073,21.422,3.973,43.126-0.322,64.566c-0.813,4.062,1.82,8.014,5.881,8.827c0.498,0.1,0.993,0.147,1.481,0.147
			c3.501,0,6.632-2.464,7.346-6.028c4.248-21.21,4.727-42.657,1.456-63.896c3.065,0.402,6.162,0.659,9.286,0.73
			c0.69,0.016,1.375,0.024,2.063,0.023c8.934,0,17.656-1.353,25.953-3.934c17.548,25.973,25.897,57.335,23.55,88.85
			c-2.489,33.422-16.93,64.898-40.661,88.63c-12.214,12.214-26.35,21.947-42.014,28.928c-3.783,1.687-5.483,6.12-3.797,9.904
			c1.244,2.792,3.984,4.449,6.855,4.449c1.02,0,2.057-0.209,3.049-0.651c17.347-7.731,32.997-18.505,46.514-32.022
			c26.271-26.271,42.257-61.119,45.013-98.123c2.52-33.841-6.109-67.531-24.372-95.776c7.515-3.912,14.499-8.951,20.739-15.048
			c13.364-13.061,21.957-29.624,24.981-47.662c16.082-1.189,30.308-11.735,35.986-26.996
			C489.097,69.72,488.383,64.148,485.343,59.773z M292.078,207.869c-32.771,32.769-85.03,34.462-119.814,5.081l107.981-107.981
			c3.473,16.507,11.716,31.729,23.995,43.888c3.933,3.894,8.178,7.37,12.672,10.41C313.969,177.767,305.43,194.516,292.078,207.869z
			 M415.8,138.608c-13.988,13.67-32.489,20.953-52.063,20.503c-18.368-0.421-35.75-7.848-48.943-20.913
			c-13.194-13.065-20.789-30.372-21.386-48.731c-0.295-9.09,1.078-17.997,4.083-26.471c2.621-7.392,0.1-15.758-6.129-20.345
			c-7.999-5.891-13.799-14.384-16.333-23.916c-0.331-1.243,0.181-2.158,0.516-2.593c0.328-0.427,1.065-1.142,2.319-1.142h89.435
			c0.257,0.036,0.518,0.059,0.783,0.069c18.688,0.675,36.151,8.463,49.174,21.929c13.055,13.5,20.245,31.281,20.245,50.067
			C437.499,106.627,429.793,124.933,415.8,138.608z M473.193,69.447c-3.357,9.023-11.387,15.466-20.709,16.991
			c-0.045-6.388-0.788-12.673-2.174-18.775h21.45c0.695,0,1.09,0.42,1.264,0.67C473.405,68.879,473.246,69.306,473.193,69.447z"/>
		<path id="XMLID_970_" d="M115.207,315.482l-2.365,1.804l-1.926-1.491c-3.275-2.536-7.985-1.937-10.522,1.338
			c-2.536,3.275-1.937,7.986,1.338,10.522l6.483,5.02c1.352,1.046,2.971,1.57,4.592,1.57c1.602,0,3.205-0.512,4.548-1.537
			l6.948-5.299c3.293-2.512,3.927-7.218,1.415-10.512C123.207,313.603,118.501,312.97,115.207,315.482z"/>
		<path id="XMLID_971_" d="M163.601,315.482l-2.365,1.804l-1.926-1.491c-3.274-2.536-7.986-1.937-10.522,1.338
			c-2.536,3.275-1.937,7.986,1.338,10.522l6.483,5.02c1.351,1.046,2.971,1.57,4.592,1.57c1.602,0,3.205-0.512,4.548-1.537
			l6.948-5.299c3.293-2.512,3.927-7.218,1.415-10.512C171.601,313.603,166.894,312.97,163.601,315.482z"/>
		<path id="XMLID_972_" d="M174.113,274.188c-2.512-3.294-7.219-3.927-10.512-1.415l-2.365,1.804l-1.925-1.491
			c-3.276-2.537-7.986-1.937-10.522,1.337c-2.536,3.275-1.938,7.986,1.337,10.522l6.483,5.021c1.352,1.046,2.972,1.57,4.592,1.57
			c1.602,0,3.205-0.512,4.548-1.537l6.948-5.299C175.992,282.188,176.625,277.482,174.113,274.188z"/>
		<path id="XMLID_973_" d="M211.996,315.482l-2.365,1.804l-1.926-1.491c-3.274-2.536-7.985-1.937-10.522,1.338
			c-2.536,3.275-1.937,7.986,1.338,10.522l6.483,5.02c1.351,1.046,2.971,1.57,4.592,1.57c1.602,0,3.205-0.512,4.548-1.537
			l6.948-5.299c3.293-2.512,3.927-7.218,1.415-10.512C219.996,313.603,215.289,312.97,211.996,315.482z"/>
		<path id="XMLID_974_" d="M222.508,271.539c-2.512-3.293-7.218-3.926-10.512-1.415l-2.365,1.804l-1.925-1.491
			c-3.276-2.536-7.986-1.936-10.522,1.337c-2.536,3.275-1.938,7.986,1.337,10.522l6.483,5.021c1.352,1.046,2.972,1.57,4.592,1.57
			c1.602,0,3.205-0.512,4.548-1.537l6.948-5.299C224.386,279.538,225.02,274.832,222.508,271.539z"/>
		<path id="XMLID_975_" d="M388.467,41.831c-19.517,0-35.395,15.878-35.395,35.395c0,19.517,15.878,35.395,35.395,35.395
			s35.395-15.878,35.395-35.395C423.862,57.709,407.984,41.831,388.467,41.831z M388.467,97.621
			c-11.246,0-20.395-9.149-20.395-20.395c0-11.246,9.149-20.395,20.395-20.395s20.395,9.149,20.395,20.395
			C408.862,88.472,399.713,97.621,388.467,97.621z"/>
		<path id="XMLID_978_" d="M397.458,69.727l-0.114-0.001c-4.171-0.067-7.528,3.293-7.563,7.436
			c-0.036,4.142,3.293,7.528,7.436,7.563l0.114,0.001c0.022,0,0.043,0,0.065,0c4.112,0,7.463-3.316,7.498-7.436
			C404.929,73.148,401.6,69.762,397.458,69.727z"/>
	</g>
</g>
<g>
</g>
<g>
</g>
<g>
</g>
<g>
</g>
<g>
</g>
<g>
</g>
<g>
</g>
<g>
</g>
<g>
</g>
<g>
</g>
<g>
</g>
<g>
</g>
<g>
</g>
<g>
</g>
<g>
</g>
</svg>
