<?xml version="1.0" encoding="utf-8"?>
<!-- Generator: Adobe Illustrator 24.3.0, SVG Export Plug-In . SVG Version: 6.00 Build 0)  -->
<svg version="1.1" id="Layer_1" xmlns="http://www.w3.org/2000/svg" xmlns:xlink="http://www.w3.org/1999/xlink" x="0px" y="0px"
	 viewBox="0 0 64 64" enable-background="new 0 0 64 64" xml:space="preserve">
<path fill="#FFFFFF" d="M59.8,18l-3.5-9c-1.4-3.6-4.9-6-8.7-6L36.3,4.3L33,4.7C26.3,4.4,21,7,21,7v33l1,9l3,3v8v1h4l1-2l2,2h3v-9
	l3-3v-6l14.2-4.9c3.6-1.3,6.3-4.5,7-8.2l1.1-5.7C60.8,22.1,60.6,20,59.8,18z"/>
<polygon fill="#FFFFFF" points="45,40.6 45,50 45,51 49,51 50,49 50,38.9 "/>
<path fill="#FFFFFF" d="M52.2,38.1L50,38.9V49l2,2h3v-9l3-3v-5.9C56.7,35.4,54.7,37.2,52.2,38.1z"/>
<path fill="#DDD8D2" d="M60.5,20.5C59.6,25.4,57.7,30.9,53,33c-3.9,1.7-7.8,3.3-11,4.5L38,43l7-2.4v4.6c3.7-1.2,7.8-2.7,10.9-4.1
	L58,39v-5.9c0.6-1,1-2.1,1.2-3.2l1.1-5.7C60.6,23,60.6,21.7,60.5,20.5z"/>
<path fill="#DDD8D2" d="M38,22l3.7-18.3l-5.3,0.6L33,4.7C26.3,4.4,21,7,21,7v33l0.2,2H27c0.6,0,1.2-0.2,1.7-0.6l5.3-3.8
	c0.6-0.4,1-1.1,1.2-1.9L38,22z"/>
<path fill="#FFFFFF" d="M41.9,13.9c-2-2-5.2-2.3-7.5-0.8L34.2,11c-0.1-1.2-0.9-2.2-2-2.6l-2.8-0.9C28.4,7.1,27.5,7,26.6,7h-7.2
	c-0.9,0-1.8,0.1-2.7,0.4l-2.8,0.9c-1.1,0.4-1.9,1.4-2,2.6l-0.2,2.2c-2.3-1.5-5.5-1.3-7.5,0.8l-1.4,1.4l1.4,1.4
	c1.9,1.9,4.8,2.2,7.1,1c-0.1,1.5,0,3,0.5,4.4L14.1,35c0.4,1.3,1.6,2.1,2.9,2.1h0c0.1,1.6,1.4,2.9,3,2.9h1h5c1.6,0,2.9-1.3,3-2.9h0
	c1.3,0,2.5-0.9,2.9-2.1l2.5-12.9c0.4-1.4,0.6-2.9,0.5-4.4c2.3,1.2,5.2,0.9,7.1-1l1.4-1.4L41.9,13.9z"/>
<polygon fill="#706553" points="50,49 52,51 55,51 55,47 50,47 "/>
<path fill="#2E2E2E" d="M32.1,8.4l-2.8-0.9C28.4,7.1,27.5,7,26.6,7H24v12.7c0,2.4,1.8,4.5,4.3,4.7l5.5,0.6l0.5-2.8
	c0.4-1.4,0.6-2.9,0.5-4.4c2.3,1.2,5.2,0.9,7.1-1l1.4-1.4l-1.4-1.4c-2-2-5.2-2.3-7.5-0.8L34.2,11C34.1,9.8,33.3,8.8,32.1,8.4z"/>
<polygon fill="#706553" points="45,47 45,50 45,51 49,51 50,49 50,47 "/>
<path fill="#2E2E2E" d="M35.7,39c-1.5,0-2.7,1.2-2.7,2.7s1.2,2.7,2.7,2.7H38V43l3-4H35.7z"/>
<polygon fill="#706553" points="30,59 32,61 35,61 35,57 30,57 "/>
<polygon fill="#706553" points="25,57 25,60 25,61 29,61 30,59 30,57 "/>
<path fill="#706553" d="M31.2,8.1l1,0.3c1.1,0.4,1.9,1.4,2,2.6l0.2,2.2c0.1-0.1,0.3-0.1,0.4-0.2L37,7l-0.7-2.7
	C36.1,3.5,35.5,3,34.7,3C33.8,3,33,3.8,33,4.7V5L31.2,8.1z"/>
<path fill="#706553" d="M13.9,8.4l1-0.3L13,5V4.7C13,3.8,12.2,3,11.3,3c-0.8,0-1.4,0.5-1.6,1.3L9,7l2.2,5.9c0.1,0.1,0.3,0.1,0.4,0.2
	l0.2-2.2C11.9,9.8,12.7,8.8,13.9,8.4z"/>
<polygon fill="#606060" points="3,46 6,61 16,61 19,46 "/>
<path fill="#FFFFFF" d="M8,42c3.9,0,0-6,0-6S4.1,42,8,42z"/>
<path fill="#2E2E2E" d="M17.4,19.8L13.3,8.7h0c-0.8,0.5-1.3,1.3-1.4,2.3l-0.2,2.2c-2.3-1.5-5.5-1.3-7.5,0.8l-1.4,1.4l1.4,1.4
	c1.9,1.9,4.8,2.2,7.1,1c-0.1,1.5,0,3,0.5,4.4L13,29l0,0l2.5-2.1C17.6,25.2,18.4,22.3,17.4,19.8z"/>
<path fill="#2E2E2E" d="M46.9,12.1l1.2,2.8c0.5,1.2,0.2,2.6-0.8,3.5l-2.2,1.8c-1.2,1-1.4,2.7-0.6,4l1.7,2.5c0.5,0.8,1.3,1.3,2.3,1.3
	l11,0.9l1-4.8c0.4-2.1,0.2-4.2-0.5-6.2l-3.5-9c-0.7-1.8-1.9-3.3-3.4-4.3l-5.1,3.9C46.8,9.4,46.4,10.9,46.9,12.1z"/>
<path d="M10.2,19.3c0,1.1,0.2,2.1,0.5,3.1l2.5,12.8c0,0,0,0.1,0,0.1c0.4,1.4,1.6,2.4,3,2.7c0.4,1.7,2,3,3.9,3h0.1l0.9,8.1
	c0,0.2,0.1,0.4,0.3,0.6l2.7,2.7V61c0,0.6,0.4,1,1,1h4c0.4,0,0.7-0.2,0.9-0.6l0.4-0.8l1,1c0.2,0.2,0.4,0.3,0.7,0.3h3c0.6,0,1-0.4,1-1
	v-8.6l2.7-2.7c0.2-0.2,0.3-0.4,0.3-0.7v-5.3l4.7-1.6l0.3,0.3V51c0,0.6,0.4,1,1,1h4c0.4,0,0.7-0.2,0.9-0.6l0.4-0.8l1,1
	c0.2,0.2,0.4,0.3,0.7,0.3h3c0.6,0,1-0.4,1-1v-8.6l2.7-2.7c0.2-0.2,0.3-0.4,0.3-0.7v-5.6c0.5-1,1-2.1,1.2-3.3l1.1-5.7
	c0.5-2.3,0.3-4.6-0.6-6.8l-3.5-9c-1.6-4-5.3-6.6-9.6-6.6c0,0-0.1,0-0.1,0L36.9,3.2C36.4,2.5,35.6,2,34.7,2c-1.1,0-2.1,0.7-2.5,1.7
	c-5.8,0-10.4,1.9-11.4,2.3h-1.4c-1,0-2.1,0.2-3,0.5l-1.1,0.4L14,4.7v0C14,3.2,12.8,2,11.3,2C10.1,2,9,2.8,8.7,4L8,6.8
	c0,0.2,0,0.4,0,0.6l1.5,3.9c-2.2-0.4-4.5,0.3-6.1,1.9L2,14.6c-0.4,0.4-0.4,1,0,1.4l1.4,1.4C5.2,19.3,7.8,19.9,10.2,19.3z M17,36
	c-0.1,0-0.2,0-0.3,0.1c-0.7-0.1-1.4-0.6-1.6-1.3l-0.2-1.2l2.8-2.3c1.1-0.8,2.4-1.3,3.7-1.3h2.7c1.6,0,3.1,0.6,4.2,1.8l2.6,2.6
	l-0.1,0.4c-0.2,0.7-0.9,1.2-1.6,1.3C29.2,36,29.1,36,29,36H17z M25,8h1.6c0.8,0,1.6,0.1,2.4,0.4l2.8,0.9c0.8,0.3,1.3,0.9,1.4,1.7
	l0.2,2.2c0,0.3,0.2,0.7,0.6,0.8c0.2,0.1,0.4,0.1,0.6,0.1c0.2-0.1,0.5-0.2,0.7-0.3c1.9-1.1,4.4-0.7,5.9,0.8l0.7,0.7l-0.7,0.7
	c-1.6,1.6-4,1.9-5.9,0.8c-0.3-0.2-0.7-0.2-1,0s-0.5,0.6-0.4,0.9c0.1,1.4,0,2.7-0.4,4c0,0,0,0.1,0,0.1L33,23.9l-4.6-0.5
	c-1.9-0.2-3.4-1.8-3.4-3.7V8z M30.7,6.9l-1.1-0.4c-0.6-0.2-1.3-0.4-2-0.4c1.1-0.2,2.4-0.3,3.7-0.4L30.7,6.9z M18.3,38h9.5
	c-0.3,0.6-1,1-1.7,1h-6C19.3,39,18.6,38.6,18.3,38z M28.4,60H26v-2h3v0.8L28.4,60z M32.4,60L31,58.6V58h3v2H32.4z M37,43.4h-1.3
	c-0.9,0-1.7-0.8-1.7-1.7s0.8-1.7,1.7-1.7H39l-1.8,2.4C37.1,42.6,37,42.8,37,43V43.4z M45.8,41.4l3.2-1.1V46h-3v-4
	C46,41.8,45.9,41.6,45.8,41.4z M48.4,50H46v-2h3v0.8L48.4,50z M52.4,50L51,48.6V48h3v2H52.4z M57,38.6l-2.7,2.7
	C54.1,41.5,54,41.7,54,42v4h-3v-6.4l1.5-0.5c1.7-0.6,3.2-1.7,4.5-3V38.6z M55.4,9.3l3.5,9c0.7,1.8,0.9,3.7,0.5,5.6l-0.8,4l-10.1-0.8
	c-0.6,0-1.2-0.4-1.5-0.9l-1.7-2.5c-0.6-0.9-0.4-2,0.4-2.6l2.2-1.8c1.3-1.1,1.8-3,1.1-4.6l-1.2-2.8c-0.4-0.8-0.1-1.8,0.6-2.4l4.5-3.4
	C54,6.8,54.9,8,55.4,9.3z M47.7,4c1.2,0,2.4,0.3,3.5,0.8l-3.9,3c-1.4,1.1-2,3.1-1.2,4.7l1.2,2.8c0.3,0.8,0.1,1.8-0.6,2.3l-2.2,1.8
	c-1.6,1.3-1.9,3.6-0.8,5.3l1.7,2.5c0.7,1,1.8,1.7,3,1.8l9.8,0.8c-0.7,3.3-3.1,6.1-6.3,7.3L40.7,41l4.1-5.4c0.1-0.2,0.2-0.4,0.2-0.6
	v-6h-2v5.7L40.5,38h-4.8c-2,0-3.7,1.7-3.7,3.7s1.7,3.7,3.7,3.7H37v3.2l-2.7,2.7C34.1,51.5,34,51.7,34,52v4h-3V43h-2v13h-3v-4
	c0-0.3-0.1-0.5-0.3-0.7L23,48.5L22.1,41H26c1.9,0,3.4-1.3,3.9-3c1.4-0.3,2.5-1.3,3-2.7c0,0,0-0.1,0-0.1l2.5-12.8
	c0.3-1,0.5-2.1,0.5-3.1c2.4,0.7,5,0,6.8-1.8L44,16c0.4-0.4,0.4-1,0-1.4l-1.4-1.4c-1.6-1.6-4-2.3-6.1-1.9l1.5-3.9C38,7.2,38,7,38,6.8
	l-0.4-1.6L47.7,4z M34,5V4.7C34,4.3,34.3,4,34.7,4c0.3,0,0.6,0.2,0.7,0.5L36,6.9l-1,2.8c0,0,0,0,0,0c-0.1-0.2-0.2-0.4-0.3-0.6
	c0-0.1-0.1-0.1-0.1-0.2c-0.1-0.2-0.2-0.3-0.4-0.4c0,0-0.1-0.1-0.1-0.1c-0.2-0.2-0.4-0.3-0.6-0.5c0,0-0.1-0.1-0.1-0.1
	c-0.2-0.1-0.3-0.2-0.5-0.3c0,0-0.1,0-0.1-0.1l1.2-2C34,5.4,34,5.2,34,5z M17,8.4C17.8,8.1,18.6,8,19.4,8H23v11.7
	c0,3,2.2,5.4,5.2,5.7l4.4,0.4L31.4,32l-1.7-1.7c-1.5-1.5-3.5-2.3-5.6-2.3h-2.7c-1.8,0-3.6,0.6-5,1.7l-2,1.6l-0.4-2l2.1-1.7
	c2.4-2,3.3-5.3,2.2-8.3L14.5,9.2L17,8.4z M10.7,4.5C10.7,4.2,11,4,11.3,4C11.7,4,12,4.3,12,4.7V5c0,0.2,0,0.4,0.1,0.5l1.2,2
	c0,0-0.1,0-0.1,0.1c-0.2,0.1-0.4,0.2-0.5,0.3c0,0-0.1,0.1-0.1,0.1c-0.2,0.1-0.4,0.3-0.6,0.5c0,0-0.1,0.1-0.1,0.1
	c-0.1,0.1-0.3,0.3-0.4,0.4c0,0.1-0.1,0.1-0.1,0.2c-0.1,0.2-0.2,0.4-0.3,0.6c0,0,0,0,0,0l-1-2.8L10.7,4.5z M4.8,14.6
	c1.6-1.6,4-1.9,5.9-0.8c0.2,0.1,0.5,0.3,0.7,0.3c0.6,0.1,1.1-0.3,1.2-0.9l0.2-2.2c0-0.1,0.1-0.3,0.1-0.4l3.6,9.5
	c0.8,2.1,0.2,4.6-1.6,6l-1.2,1l-1-5.2c0,0,0-0.1,0-0.1c-0.4-1.3-0.5-2.6-0.4-4c0-0.4-0.1-0.7-0.4-0.9s-0.7-0.2-1,0
	c-2,1.1-4.3,0.7-5.9-0.8l-0.7-0.7L4.8,14.6z"/>
<path d="M14.2,21.6c0.4,0.2,1,0,1.3-0.5c0.3-0.5,0.2-1.2-0.2-1.4c-0.4-0.2-1,0-1.3,0.5C13.7,20.7,13.8,21.3,14.2,21.6z"/>
<rect x="18" y="32.4" transform="matrix(0.4472 -0.8944 0.8944 0.4472 -19.4604 35.5125)" width="2" height="2.2"/>
<rect x="25.9" y="32.5" transform="matrix(0.8944 -0.4472 0.4472 0.8944 -12.1312 15.6115)" width="2.2" height="2"/>
<path d="M31.5,21.6c0.4-0.2,0.5-0.9,0.2-1.4c-0.3-0.5-0.9-0.8-1.3-0.5c-0.4,0.2-0.5,0.9-0.2,1.4C30.5,21.6,31.1,21.8,31.5,21.6z"/>
<rect x="46" y="36" width="2" height="2"/>
<rect x="51" y="34" width="2" height="2"/>
<path d="M3.7,57.7l0.5-0.5l0.8,4C5.1,61.7,5.5,62,6,62h10c0.5,0,0.9-0.3,1-0.8l3-15c0.1-0.3,0-0.6-0.2-0.8C19.6,45.1,19.3,45,19,45
	H3c-0.3,0-0.6,0.1-0.8,0.4C2,45.6,2,45.9,2,46.2l1.7,8.6l-1.5,1.5L3.7,57.7z M15.2,60H6.8l-0.9-4.5l8.5-8.5h3.4L15.2,60z M4.2,47
	h7.4l-6.1,6.1L4.2,47z"/>
<path d="M7.2,35.5c-0.6,1-2.6,4.4-1.6,6.3C5.9,42.3,6.6,43,8,43s2.1-0.7,2.4-1.2c1.1-2-0.9-5.3-1.6-6.3C8.5,34.9,7.5,34.9,7.2,35.5z
	 M8.7,40.8C8.6,41,8.1,41,8,41s-0.6,0-0.7-0.2c-0.2-0.4,0.1-1.6,0.7-2.8C8.6,39.2,8.9,40.4,8.7,40.8z"/>
</svg>
