<?xml version="1.0" encoding="UTF-8" standalone="no"?> <svg width="512" height="512" viewBox="0 0 512 512" fill="none" xmlns="http://www.w3.org/2000/svg">
<path d="M72 312L96 368L78.6 408.6C74.5 418.2 75.3 429.3 80.9 438.1L112 488H152L120 424L120.8 423.2C145.9 398.1 160 364 160 328.4V328L72 312Z" fill="#DCDBD6"/>
<path d="M213 368L117 344L85 392L89.8 393.6C97.7 396.2 105.8 398.1 114 399.1L112.1 406.5C110.3 413.7 114.3 421 121.3 423.3C128 425.5 135.2 422.5 138.4 416.2L146.3 400.4C146.9 399.3 147.9 398.5 149.1 398.3C150.7 398 152.3 398.9 153.1 400.4L159.4 413C162.5 419.3 169.8 422.3 176.5 420.1C183.5 417.8 187.5 410.4 185.7 403.3L181.9 388.2C190.8 384 199.2 378.8 207 372.6L213 368Z" fill="#E6AF89"/>
<path d="M410.2 136C399.2 97.4 365.7 69.4 325.8 65.4L312 64L332.5 81.1C350.6 96.2 365.4 114.9 376 136H410.2Z" fill="#A86E09"/>
<path d="M95.9999 208L26.6999 154.7C22.2999 176.2 30.3999 198.3 47.5999 211.9L57.1999 219.5L95.9999 208Z" fill="#CDCCC8"/>
<path d="M264 358V416L296 488H336L304 416L312 336L264 358Z" fill="#DCDBD6"/>
<path d="M478.3 185.6L451.4 168L443.3 154.6C436.3 143 423.7 136 410.2 136H392L312 216H251.4C227.8 216 204.2 214.6 180.8 211.9L103.2 202.8C88.1 201 72.9 204.1 59.7 211.7C37.6 224.2 24 247.7 24 273.1V275.3C24 283.7 25.5 292 28.4 299.8L56 368L39 407.7C34.6 417.9 35.5 429.7 41.4 439.1L72 488H112L80 424L80.8 423.2C99 405 111.4 382 116.9 357.2C164.8 379.4 219.8 380.9 268.9 361.3L272 360L296 352L304 416L336 488H376L344 408L352 358L376 288L416 224H467.2C478.9 224 488.4 214.3 488 202.4C487.7 195.6 484 189.4 478.3 185.6Z" fill="#EAE9E4"/>
<path d="M432 224C432 243.6 443.1 261.5 460.6 270.3L464 272V224H432Z" fill="#CDCCC8"/>
<path d="M366.9 312C357.4 312 349.8 319.7 349.8 329.1C349.8 336.6 348.1 344 344.7 350.8L344 352H389.7L389.1 350.8C385.7 344.1 384 336.7 384 329.1C384 319.7 376.3 312 366.9 312Z" fill="#EE9D0D"/>
<path d="M392 136H320L328.1 152.2C332.9 161.9 342.9 168 353.7 168C362.7 168 371.2 163.8 376.6 156.6L392 136Z" fill="#CDCCC8"/>
<path d="M482.6 178.9L457.3 162.3L450.1 150.5C442.7 138.4 430.1 130.3 416.2 128.4C409.9 110.1 398.9 94 384 81.6C367.6 67.9 347.8 59.6 326.6 57.5L312.8 56C309.3 55.7 306 57.6 304.6 60.9C303.2 64.1 304.2 67.9 306.9 70.1L327.4 87.2C341.4 98.9 353.1 112.5 362.5 128H320C317.2 128 314.7 129.4 313.2 131.8C311.7 134.2 311.6 137.1 312.8 139.6L320.9 155.8C325.4 164.8 333.2 171.3 342.4 174.3L308.7 208H251.4C228.2 208 204.8 206.6 181.7 203.9L104.1 194.8C99.9 194.3 95.6 194.2 91.3 194.4L31.5 148.4C29.3 146.7 26.4 146.3 23.8 147.2C21.2 148.2 19.3 150.4 18.8 153.1C13.9 176.7 22.1 200.6 40.3 216.3C25 230.9 16 251.5 16 273.1V275.3C16 284.6 17.6 293.8 20.9 302.6C20.9 302.7 21 302.8 21 302.8L47.4 367.8L31.7 404.4C26.3 417 27.4 431.5 34.7 443.2L65.3 492.1C66.8 494.4 69.3 495.9 72.1 495.9H152.1C154.9 495.9 157.4 494.5 158.9 492.1C160.4 489.7 160.5 486.8 159.3 484.3L132.4 431C138 429.3 142.8 425.3 145.6 419.8L149.8 411.5L152.4 416.7C157.3 426.5 168.8 431.2 179.2 427.8C190.1 424.2 196.4 412.6 193.7 401.5L191.5 392.6C196.2 390.1 200.8 387.3 205.1 384.3C205.7 383.9 206.3 383.3 206.8 382.8C223.5 382.1 240.1 379.2 256.1 374.3V416C256.1 417.1 256.3 418.2 256.8 419.2L288.8 491.2C290.1 494.1 292.9 496 296.1 496H376.1C378.8 496 381.2 494.7 382.7 492.5C384.2 490.3 384.5 487.5 383.5 485L352.3 407.1L359.8 360H389.7C392.5 360 395 358.6 396.5 356.2C398 353.8 398.1 350.9 396.8 348.4L396.2 347.2C393.4 341.6 391.9 335.4 391.9 329.1C391.9 319.3 386.2 310.7 378 306.6L383.2 291.4L420.4 231.9H424.5C427.1 251.4 439 268.4 457 277.4L460.4 279.1C461.5 279.7 462.8 279.9 464 279.9C465.5 279.9 466.9 279.5 468.2 278.7C470.6 277.2 472 274.7 472 271.9V231.5C478.1 230.5 483.6 227.6 487.9 223.1C493.4 217.4 496.2 209.9 495.9 202C495.6 192.9 490.7 184.2 482.6 178.9ZM338.6 75.8C351.5 79.1 363.4 85.3 373.7 93.9C384.8 103.2 393.4 114.9 398.9 128.1H380.8C370.2 108 356 90.4 338.6 75.8ZM335.2 148.6L332.9 144H376L370.2 151.8C366.3 157 360.2 160 353.7 160C345.8 160 338.8 155.6 335.2 148.6ZM33.6 170.1L70.2 198.2C65.2 199.8 60.4 202 55.8 204.6C54.9 205.1 54.1 205.6 53.3 206.1L52.6 205.5C41.3 196.7 34.6 183.9 33.6 170.1ZM139.1 480H117L89.8 425.5C95 419.9 99.7 414 104 407.7C103.2 415.6 106.8 423.3 113.1 427.8L139.1 480ZM174.1 412.5C171.2 413.5 168.1 412.1 166.7 409.4L160.4 396.8C158.1 392.2 153.1 389.6 148 390.4C148 390.4 148 390.4 147.9 390.4C144.1 391 140.9 393.4 139.2 396.8L131.3 412.6C129.9 415.3 126.8 416.6 123.9 415.7C120.9 414.7 119.1 411.5 119.9 408.4L121.8 401C122.4 398.8 121.9 396.4 120.6 394.5C119.3 392.6 117.3 391.4 115 391.1C114.5 391 114 391 113.5 390.9C117.1 383.6 120 376.1 122.3 368.2C139.9 375.4 158.5 379.9 177.2 381.8C174.7 383.7 173.5 387 174.3 390.1L178.1 405.2C178.8 408.3 177.1 411.5 174.1 412.5ZM301.2 480L272 414.3V368.6L289.3 362.7L296.1 417C296.2 417.8 296.4 418.5 296.7 419.3L323.7 480.1H301.2V480ZM364.2 480H341.2L311.8 413.8L303.9 351C303.6 348.6 302.3 346.5 300.2 345.2C298.2 343.9 295.7 343.6 293.4 344.4L265.8 353.8C219 372.5 165.9 371.1 120.2 349.9C118 348.9 115.5 348.9 113.3 350C111.1 351.1 109.6 353.1 109 355.5C106.1 368.7 101.2 381.2 94.4 392.7C94.3 392.8 94.3 392.9 94.2 393C88.9 401.9 82.5 410.2 75 417.7L74.2 418.5C71.8 420.9 71.2 424.7 72.7 427.7L99.1 480H76.4L48.2 434.8C43.7 427.6 43 418.6 46.3 410.8L63.3 371.1C64.1 369.1 64.2 366.9 63.4 364.9L35.8 296.9C33.3 290 32 282.7 32 275.3V273.1C32 250.6 44.1 229.7 63.7 218.5C75.3 211.9 89 209.1 102.3 210.6L179.9 219.7C203.6 222.5 227.6 223.9 251.4 223.9H305.7L307.8 232.1C315.1 261.2 330.6 287.9 352.2 308.6C345.9 313.2 341.7 320.6 341.7 329C341.7 335.2 340.2 341.5 337.4 347.1L336.8 348.3C335.6 350.8 335.7 353.7 337.1 356.1C338.5 358.3 340.9 359.7 343.5 359.9L336 406.7C335.8 408.1 335.9 409.6 336.5 410.9L364.2 480ZM355.7 344C357 339.2 357.7 334.2 357.7 329.1C357.7 324.1 361.8 320 366.8 320C371.8 320 375.9 324.1 375.9 329.1C375.9 334.1 376.6 339.1 377.9 344H355.7ZM456 257.9C448 251.4 442.6 242.2 440.7 232H456V257.9ZM476.4 212.1C474 214.6 470.7 216 467.2 216H416C413.2 216 410.7 217.4 409.2 219.8L369.2 283.8C368.9 284.3 368.6 284.9 368.4 285.4L364.1 298C360.1 294.2 356.4 290.3 352.9 286.1L328 243.5C326.2 238.5 320.8 218.4 320.8 218.4L363.9 175.3C364.3 174.9 364.6 174.6 364.8 174.2C371.9 171.9 378.3 167.4 382.9 161.3L395.9 143.9H410.1C420.8 143.9 430.8 149.6 436.3 158.7L444.4 172.1C445 173.1 445.9 174 446.8 174.6L473.6 192.2C477.3 194.6 479.6 198.5 479.7 202.6C480.1 206.2 478.9 209.6 476.4 212.1Z" fill="black"/>
<path d="M413 184C420.18 184 426 178.18 426 171C426 163.82 420.18 158 413 158C405.82 158 400 163.82 400 171C400 178.18 405.82 184 413 184Z" fill="black"/>
</svg>
